<svg xmlns="http://www.w3.org/2000/svg" width="20.668" height="18.911" viewBox="0 0 20.668 18.911">
  <g id="Twitter_icon" data-name="Twitter icon" transform="translate(61.999 -54.441)">
    <g id="Group_7" data-name="Group 7" transform="translate(-61.999 54.441)">
      <path id="Path_148" data-name="Path 148" d="M20.669,59.678a7.74,7.74,0,0,1-2.434.752A4.739,4.739,0,0,0,20.1,57.79,7.992,7.992,0,0,1,17.4,58.95a4.023,4.023,0,0,0-3.094-1.509,4.532,4.532,0,0,0-4.24,4.775,5.369,5.369,0,0,0,.11,1.088,11.651,11.651,0,0,1-8.738-4.99,5.206,5.206,0,0,0-.573,2.4,4.957,4.957,0,0,0,1.886,3.975,3.885,3.885,0,0,1-1.92-.6v.06a4.675,4.675,0,0,0,3.4,4.683A3.844,3.844,0,0,1,3.116,69a3.629,3.629,0,0,1-.8-.089,4.34,4.34,0,0,0,3.96,3.317,7.922,7.922,0,0,1-5.265,2.041A8.012,8.012,0,0,1,0,74.2a11.032,11.032,0,0,0,6.5,2.149c7.8,0,12.063-7.277,12.063-13.588l-.014-.618A9.131,9.131,0,0,0,20.669,59.678Z" transform="translate(-0.001 -57.441)" fill="#fff"/>
    </g>
  </g>
</svg>
